<svg width="13" height="13" viewBox="0 0 13 13" fill="none" xmlns="http://www.w3.org/2000/svg">
    <path
        d="M11.2965 0.5C11.6502 0.5 11.9893 0.640476 12.2394 0.890524C12.4894 1.14057 12.6299 1.47971 12.6299 1.83333V11.1667C12.6299 11.5203 12.4894 11.8594 12.2394 12.1095C11.9893 12.3595 11.6502 12.5 11.2965 12.5H1.96322C1.60959 12.5 1.27046 12.3595 1.02041 12.1095C0.770359 11.8594 0.629883 11.5203 0.629883 11.1667V1.83333C0.629883 1.47971 0.770359 1.14057 1.02041 0.890524C1.27046 0.640476 1.60959 0.5 1.96322 0.5H11.2965ZM10.9632 10.8333V7.3C10.9632 6.7236 10.7342 6.1708 10.3267 5.76322C9.91908 5.35564 9.36629 5.12667 8.78988 5.12667C8.22322 5.12667 7.56322 5.47333 7.24322 5.99333V5.25333H5.38322V10.8333H7.24322V7.54667C7.24322 7.03333 7.65655 6.61333 8.16988 6.61333C8.41742 6.61333 8.65482 6.71167 8.82985 6.8867C9.00488 7.06173 9.10322 7.29913 9.10322 7.54667V10.8333H10.9632ZM3.21655 4.20667C3.51359 4.20667 3.79847 4.08867 4.00851 3.87863C4.21855 3.66859 4.33655 3.38371 4.33655 3.08667C4.33655 2.46667 3.83655 1.96 3.21655 1.96C2.91774 1.96 2.63117 2.0787 2.41988 2.28999C2.20858 2.50128 2.08988 2.78786 2.08988 3.08667C2.08988 3.70667 2.59655 4.20667 3.21655 4.20667ZM4.14322 10.8333V5.25333H2.29655V10.8333H4.14322Z"
        fill="black" />
</svg>